<svg width="430" height="414" viewBox="0 0 430 414" fill="none" xmlns="http://www.w3.org/2000/svg">
<rect width="430" height="414" fill="none"/>
<rect width="430" height="414" rx="51" fill="#30BD0D"/>
<g filter="url(#filter0_d_0_1)">
<mask id="path-2-outside-1_0_1" maskUnits="userSpaceOnUse" x="66" y="62" width="285" height="293" fill="black">
<rect fill="white" x="66" y="62" width="285" height="293"/>
<path d="M349.159 63L300.864 353.909H256.972L277.994 227.489H132.966L111.943 353.909H67.9091L116.205 63H160.239L139.216 189.847H284.244L305.267 63H349.159Z"/>
</mask>
<path d="M349.159 63L300.864 353.909H256.972L277.994 227.489H132.966L111.943 353.909H67.9091L116.205 63H160.239L139.216 189.847H284.244L305.267 63H349.159Z" fill="#E2E2E2"/>
<path d="M349.159 63L350.146 63.1638L350.339 62H349.159V63ZM300.864 353.909V354.909H301.711L301.85 354.073L300.864 353.909ZM256.972 353.909L255.985 353.745L255.792 354.909H256.972V353.909ZM277.994 227.489L278.981 227.653L279.174 226.489H277.994V227.489ZM132.966 227.489V226.489H132.118L131.979 227.325L132.966 227.489ZM111.943 353.909V354.909H112.791L112.93 354.073L111.943 353.909ZM67.9091 353.909L66.9226 353.745L66.7294 354.909H67.9091V353.909ZM116.205 63V62H115.357L115.218 62.8362L116.205 63ZM160.239 63L161.225 63.1635L161.418 62H160.239V63ZM139.216 189.847L138.229 189.683L138.037 190.847H139.216V189.847ZM284.244 189.847V190.847H285.092L285.231 190.01L284.244 189.847ZM305.267 63V62H304.419L304.281 62.8365L305.267 63ZM349.159 63L348.173 62.8362L299.877 353.745L300.864 353.909L301.85 354.073L350.146 63.1638L349.159 63ZM300.864 353.909V352.909H256.972V353.909V354.909H300.864V353.909ZM256.972 353.909L257.958 354.073L278.981 227.653L277.994 227.489L277.008 227.325L255.985 353.745L256.972 353.909ZM277.994 227.489V226.489H132.966V227.489V228.489H277.994V227.489ZM132.966 227.489L131.979 227.325L110.957 353.745L111.943 353.909L112.93 354.073L133.952 227.653L132.966 227.489ZM111.943 353.909V352.909H67.9091V353.909V354.909H111.943V353.909ZM67.9091 353.909L68.8956 354.073L117.191 63.1638L116.205 63L115.218 62.8362L66.9226 353.745L67.9091 353.909ZM116.205 63V64H160.239V63V62H116.205V63ZM160.239 63L159.252 62.8365L138.229 189.683L139.216 189.847L140.202 190.01L161.225 63.1635L160.239 63ZM139.216 189.847V190.847H284.244V189.847V188.847H139.216V189.847ZM284.244 189.847L285.231 190.01L306.254 63.1635L305.267 63L304.281 62.8365L283.258 189.683L284.244 189.847ZM305.267 63V64H349.159V63V62H305.267V63Z" fill="#A5A1A1" mask="url(#path-2-outside-1_0_1)"/>
</g>
<defs>
<filter id="filter0_d_0_1" x="62.7294" y="62" width="291.609" height="300.909" filterUnits="userSpaceOnUse" color-interpolation-filters="sRGB">
<feFlood flood-opacity="0" result="BackgroundImageFix"/>
<feColorMatrix in="SourceAlpha" type="matrix" values="0 0 0 0 0 0 0 0 0 0 0 0 0 0 0 0 0 0 127 0" result="hardAlpha"/>
<feOffset dy="4"/>
<feGaussianBlur stdDeviation="2"/>
<feComposite in2="hardAlpha" operator="out"/>
<feColorMatrix type="matrix" values="0 0 0 0 0 0 0 0 0 0 0 0 0 0 0 0 0 0 0.25 0"/>
<feBlend mode="normal" in2="BackgroundImageFix" result="effect1_dropShadow_0_1"/>
<feBlend mode="normal" in="SourceGraphic" in2="effect1_dropShadow_0_1" result="shape"/>
</filter>
</defs>
</svg>
